<?xml version="1.0" encoding="utf-8"?><svg viewBox="0 0 612 612" xmlns="http://www.w3.org/2000/svg" xmlns:xlink="http://www.w3.org/1999/xlink"><style>:root>svg{display:none}:root>svg:target{display:block}</style><svg viewBox="0 0 30 30" id="facebook" xmlns="http://www.w3.org/2000/svg"><rect width="30" height="30" rx="15"/><path d="M16.905 11.054H18V9.087A13.726 13.726 0 0016.404 9c-1.58 0-2.661 1.024-2.661 2.906v1.733H12v2.198h1.743v5.533h2.137v-5.532h1.672l.265-2.199H15.88v-1.515c0-.635.167-1.07 1.026-1.07z"/></svg><svg viewBox="0 0 612 612" id="facebook-icon" xmlns="http://www.w3.org/2000/svg"><path d="M612 306C612 137.004 474.995 0 306 0 137.004 0 0 137.004 0 306c0 168.995 137.004 306 306 306 168.995 0 306-137.005 306-306zm-584.182 0C27.818 152.36 152.36 27.818 306 27.818S584.182 152.36 584.182 306 459.64 584.182 306 584.182 27.818 459.64 27.818 306z"/><path d="M317.739 482.617V306h58.279l9.208-58.529h-67.487v-29.348c0-15.272 5.007-29.849 26.928-29.849h43.813v-58.418h-62.201c-52.298 0-66.569 34.438-66.569 82.175v35.413h-35.885V306h35.885v176.617h58.029z"/></svg><svg viewBox="0 0 502.664 502.664" id="icon" xmlns="http://www.w3.org/2000/svg"><path d="M153.821 358.226L0 274.337v-46.463l153.821-83.414v54.574L46.636 250.523l107.185 53.431v54.272zm26.273 29.358L282.103 115.08h32.227L212.084 387.584h-31.99zm168.749-29.358v-54.272l107.164-52.999-107.164-52.59v-53.927l153.821 83.522v46.183l-153.821 84.083z"/></svg><svg viewBox="0 0 40 40" id="linkedin" xmlns="http://www.w3.org/2000/svg"><path d="M20.995 21.369h.003v-4.537c0-2.22-.463-3.929-2.98-3.929-1.21 0-2.022.685-2.353 1.334h-.035V13.11h-2.386v8.258h2.484V17.28c0-1.076.198-2.117 1.492-2.117 1.274 0 1.293 1.228 1.293 2.186v4.02h2.482zM9.199 13.111h2.487v8.258H9.2V13.11zM10.44 9C9.646 9 9 9.665 9 10.486c0 .82.645 1.499 1.44 1.499.796 0 1.442-.68 1.442-1.5C11.88 9.665 11.236 9 10.44 9z"/></svg><svg viewBox="0 0 512 512" id="linkedin-icon" xmlns="http://www.w3.org/2000/svg"><path d="M259 507.2C120.4 507.9 6.7 392.7 9.9 252.1c3-134 114.1-245 252.4-243.4 136.6 1.6 249.4 115.4 245.8 256-3.4 133.4-113.4 243.1-249.1 242.5zm-218.8-249C41.3 383.5 142.6 479.8 262.4 478c116.2-1.8 215.2-96.4 215.3-220 0-125.2-102.1-222-222.2-220C139.1 39.9 41 134.7 40.2 258.2z"/><path d="M326.6 375.6v-6.1c0-26.7.1-53.3-.1-80 0-4.6-.4-9.4-1.5-13.8-3.6-14.8-15.6-22.2-32.9-20.8-12.8 1-24.3 12.4-25.2 25.6-.6 8-.4 16-.5 24-.1 21.7 0 43.3 0 65v6.2h-48.1V219.3H266v19.8c1.7-2 2.7-3 3.4-4.2 21.6-32.4 80.2-28.9 97.6 9.3 4.8 10.6 7.7 21.7 7.8 33.3.3 32.1.2 64.3.2 96.5 0 .5-.1 1-.3 1.8-15.8-.2-31.7-.2-48.1-.2zm-139.1.2h-47.7V220.2h47.7v155.6zM162.2 189c-14.3-.1-24.3-10.5-24.2-24.9s10.5-24.3 25.4-24.2c14.2.1 24.5 10.6 24.3 24.9 0 14.2-10.7 24.3-25.5 24.2z"/></svg><svg viewBox="0 0 512 512" id="linkedin-new" xmlns="http://www.w3.org/2000/svg"><path d="M173.5 508.7v-330c0-3-.2-5.4 4.2-5.4 31.8.2 63.7.1 95.5.1.8 0 1.6.2 2.9.4v41.7c.4.1.7.3 1.1.4 4-5.2 7.8-10.6 12-15.7 12.2-15 27.5-26 45.5-32.6 9.8-3.6 20.5-5.8 30.8-6.3 14.2-.6 28.7-.4 42.7 2 23 3.9 43.3 14.1 60.1 30.8 15.9 15.7 26.4 34.6 32.1 55.9 3 11.3 4.9 22.9 6.7 34.4 1.2 8 1.8 16.2 1.8 24.2.1 65 .1 130 .1 195 0 1.6-.1 3.2-.2 5.3h-5.1c-30.7 0-61.3-.1-92 .1-5.1 0-6-1.7-6-6.3.1-59.8.3-119.7-.1-179.5-.1-10.5-1.1-21.4-3.8-31.5-4.9-17.7-16.1-30.5-33.9-37-15-5.5-30.2-6.5-45.6-2.6-17 4.3-28.7 15.6-37.5 30.5-6.8 11.5-8.1 24.2-8.2 36.9-.4 60.7-.2 121.3-.2 182v7.1c-34.5.1-68.4.1-102.9.1zm-64.4-166.1c0 53.3-.1 106.6.1 159.9 0 4.8-1 6.6-6.3 6.5-30.5-.3-61-.3-91.5 0-5 0-6.1-1.7-6.1-6.3.1-107.1.1-214.3 0-321.4 0-4.3 1.2-5.8 5.6-5.8 30.8.2 61.6.2 92.5 0 4.8 0 5.7 1.8 5.7 6.1v161zM56.1 4.8C89 4 108.7 27.9 108.8 57.2c.1 30-20.9 52.4-53.9 52.3-30.7 0-52.4-22-52.3-53.1.1-29.1 21.2-52.6 53.5-51.6z"/></svg><svg viewBox="0 0 30 30" id="telegram-icon" xmlns="http://www.w3.org/2000/svg"><path d="M0 0h30v30H0zm184.478 108.606a688.913 688.913 0 01-6.865 6.223 1.137 1.137 0 101.515 1.697s8.883-7.929 12.676-11.722c.579-.578.753-1.021.784-1.205a1.13 1.13 0 00-.321-1.038 1.177 1.177 0 00-.824-.362c-.193-.008-.622.067-1.2.339-3.306 1.555-16.452 10.313-16.452 10.313a1.137 1.137 0 101.262 1.893s4.893-3.264 9.425-6.138z"/><path d="M183 80.75c-16.144 0-29.25 13.106-29.25 29.25s13.106 29.25 29.25 29.25 29.25-13.106 29.25-29.25S199.144 80.75 183 80.75zm0 2.5c14.764 0 26.75 11.986 26.75 26.75s-11.986 26.75-26.75 26.75-26.75-11.986-26.75-26.75S168.236 83.25 183 83.25z"/><path d="M173.509 114.698l2.434 7.918c.009.029.019.058.03.086.259.65.519 1.028.705 1.207.336.324.681.399.967.391.402-.012 1.05-.252 1.307-1.205.018-.07.031-.141.036-.213l.368-5.068 9.615 7.072c.988.75 1.876.909 2.549.704.694-.212 1.366-.848 1.684-2.202l.005-.024 4.746-22.363c.283-1.191.124-2.081-.263-2.601-.449-.605-1.298-1.016-2.742-.626a.91.91 0 00-.115.038l-27.876 10.811a1.436 1.436 0 00-.126.058c-1.321.709-1.615 1.52-1.619 2.045-.005.707.491 1.391 1.333 1.729.025.01.05.02.076.028l6.886 2.215zm22.307-14.779a3.687 3.687 0 01-.077.567l-.007.03-4.745 22.36c-.04.165-.119.354-.172.472a3.067 3.067 0 01-.472-.278l-.017-.012-11.282-8.297a1.139 1.139 0 00-1.808.834l-.205 2.817-1.522-4.949a1.138 1.138 0 00-.739-.749l-6.594-2.122 27.417-10.634a2.32 2.32 0 01.223-.039z"/><path d="M178.391 124.017l4.946-4.271a1.138 1.138 0 00-1.487-1.722l-4.945 4.271a1.137 1.137 0 101.486 1.722z"/></svg></svg>